<?xml version="1.0" standalone="no"?>
<!DOCTYPE svg PUBLIC "-//W3C//DTD SVG 20010904//EN"
 "http://www.w3.org/TR/2001/REC-SVG-20010904/DTD/svg10.dtd">
<svg version="1.0" xmlns="http://www.w3.org/2000/svg"
 width="832.000000pt" height="832.000000pt" viewBox="0 0 832.000000 832.000000"
 preserveAspectRatio="xMidYMid meet">
<metadata>
Created by potrace 1.14, written by Peter Selinger 2001-2017
</metadata>
<g transform="translate(0.000000,832.000000) scale(0.100000,-0.100000)"
fill="#000000" stroke="none">
<path d="M4065 8309 c-26 -13 -43 -39 -66 -103 -15 -45 -18 -47 -18 -21 -2 54
-12 75 -36 75 l-23 0 -7 -287 c-3 -159 -11 -317 -16 -352 -10 -68 -25 -105
-38 -97 -12 8 -21 530 -11 620 11 93 2 119 -38 114 -45 -5 -54 -37 -47 -173 3
-66 10 -246 15 -400 6 -154 12 -332 16 -395 5 -117 -3 -193 -21 -188 -6 2 -10
51 -11 118 -2 128 -18 430 -34 618 -5 68 -10 163 -10 211 0 48 -5 102 -11 119
-13 37 -45 51 -67 28 -14 -14 -15 -30 -4 -143 7 -71 17 -207 22 -303 5 -96 14
-209 19 -250 5 -41 15 -156 21 -255 6 -99 15 -202 20 -228 14 -67 13 -227 -1
-227 -16 0 -39 65 -39 109 0 22 -5 52 -10 67 -6 15 -17 89 -24 165 -8 76 -18
144 -22 151 -5 7 -11 67 -15 133 -3 66 -12 163 -18 215 -6 52 -21 178 -32 280
-26 235 -32 260 -63 260 -43 0 -47 -16 -36 -164 5 -75 12 -140 14 -145 3 -4
12 -73 21 -154 8 -80 22 -175 30 -211 15 -63 12 -116 -5 -116 -10 0 -17 31
-30 130 -5 41 -16 104 -25 140 -8 36 -22 117 -30 180 -28 226 -47 335 -61 349
-10 12 -18 12 -39 3 -24 -11 -25 -16 -25 -88 0 -50 9 -108 25 -168 13 -50 29
-136 34 -191 6 -55 22 -140 36 -190 13 -49 25 -109 25 -131 0 -23 7 -61 15
-84 8 -23 15 -57 15 -74 0 -23 -14 2 -51 94 -44 108 -52 138 -59 225 -4 55
-22 154 -38 220 -17 66 -35 154 -41 196 -16 118 -36 154 -83 147 -37 -5 -34
-58 16 -250 35 -135 76 -325 76 -354 0 -2 -7 -4 -14 -4 -8 0 -27 16 -43 36
-23 31 -27 46 -28 103 -1 92 -44 390 -61 423 -18 34 -49 51 -80 44 -40 -10
-39 -43 10 -193 30 -91 46 -157 46 -189 -1 -46 -1 -48 -16 -29 -33 41 -74 143
-99 245 -30 120 -46 150 -79 150 -56 0 -107 -76 -167 -250 -17 -52 -36 -99
-40 -104 -7 -8 -39 82 -39 110 0 23 -61 84 -84 84 -51 0 -59 -40 -21 -105 24
-40 99 -218 181 -430 19 -49 52 -120 72 -157 26 -49 33 -71 25 -79 -13 -13
-60 61 -127 201 -25 52 -57 115 -70 140 -14 25 -41 92 -62 150 -41 116 -57
146 -86 161 -23 12 -54 4 -62 -17 -7 -17 29 -118 55 -155 10 -14 81 -155 158
-315 77 -159 156 -316 176 -350 38 -66 42 -86 21 -103 -11 -9 -17 -8 -28 3
-18 17 -93 161 -103 196 -11 39 -173 377 -221 462 -24 43 -53 101 -65 130 -33
84 -75 118 -107 86 -17 -17 -15 -59 6 -98 27 -51 160 -296 240 -443 38 -70 87
-167 108 -215 21 -48 50 -105 65 -127 39 -59 71 -125 60 -125 -16 0 -178 273
-268 450 -214 423 -282 530 -319 499 -8 -6 -14 -29 -14 -53 0 -33 9 -53 43
-100 24 -31 81 -126 127 -209 46 -84 132 -242 193 -352 60 -110 143 -258 184
-328 53 -92 73 -135 71 -155 -3 -24 -8 -19 -53 51 -28 44 -77 120 -109 170
-32 51 -78 133 -102 182 -68 144 -367 656 -396 678 -21 15 -29 17 -47 8 -35
-19 -26 -60 35 -157 138 -218 188 -301 286 -479 58 -104 137 -240 176 -302 39
-61 78 -127 88 -145 16 -32 15 -32 -31 12 -59 57 -311 413 -357 506 -20 39
-60 111 -90 160 -31 49 -87 144 -127 211 -51 87 -82 130 -109 148 -43 30 -77
32 -91 7 -8 -15 -2 -30 30 -73 23 -29 50 -71 60 -92 11 -21 56 -93 100 -160
45 -67 101 -161 125 -209 24 -48 57 -102 72 -120 51 -58 153 -210 149 -221 -6
-19 -73 60 -147 173 -38 58 -127 183 -197 278 -70 96 -146 204 -169 240 -44
72 -80 96 -108 72 -9 -7 -16 -25 -16 -41 0 -24 -4 -29 -26 -29 -34 0 -64 -17
-64 -36 0 -26 26 -67 124 -198 52 -69 90 -126 83 -126 -27 0 -77 42 -122 102
-68 89 -126 148 -147 148 -10 0 -24 -11 -30 -25 -13 -28 -25 -31 -53 -12 -28
19 -114 47 -145 47 -62 0 -66 -54 -10 -175 22 -48 40 -91 40 -97 0 -5 -16 0
-35 12 -20 12 -42 19 -50 16 -20 -7 -19 -41 2 -73 18 -27 18 -27 -7 -19 -54
17 -76 18 -89 2 -20 -24 -4 -51 53 -89 29 -19 95 -81 147 -138 52 -57 112
-119 134 -138 22 -20 60 -58 84 -86 25 -27 97 -101 161 -162 63 -62 109 -113
102 -113 -7 0 -54 35 -105 78 -51 43 -102 84 -114 90 -33 18 -63 15 -63 -5 0
-22 193 -208 269 -261 67 -46 167 -145 152 -150 -6 -2 -59 35 -117 82 -58 47
-112 86 -119 86 -13 0 -45 -26 -45 -37 0 -22 45 -71 94 -100 66 -40 186 -139
186 -154 0 -20 -26 -6 -94 49 -39 33 -174 130 -301 218 -267 184 -303 213
-465 362 -91 84 -131 114 -168 126 -56 19 -82 13 -82 -18 0 -27 38 -64 109
-106 30 -17 87 -61 125 -96 125 -112 226 -189 459 -350 202 -138 270 -194 238
-194 -25 0 -70 25 -143 81 -44 33 -153 103 -242 155 -88 53 -183 112 -211 133
-27 20 -76 54 -108 76 -32 21 -88 67 -124 101 -73 70 -116 93 -142 77 -29 -18
-24 -44 16 -85 49 -51 199 -166 329 -251 112 -73 133 -92 117 -108 -7 -7 -39
5 -99 36 -82 42 -137 80 -269 185 -62 50 -130 78 -154 63 -29 -18 -18 -46 33
-83 27 -19 76 -56 110 -82 34 -26 89 -63 123 -83 76 -44 82 -65 19 -65 -28 0
-52 -7 -69 -20 -43 -34 -81 -25 -217 50 -68 39 -132 70 -141 70 -22 0 -43 -26
-36 -44 3 -8 32 -30 64 -48 32 -19 57 -39 55 -44 -5 -17 -86 -2 -168 32 -71
29 -86 32 -113 23 -33 -12 -51 -35 -51 -66 0 -39 70 -163 129 -228 34 -37 59
-71 56 -75 -3 -5 -19 -4 -35 2 -39 13 -60 4 -60 -26 0 -17 10 -30 33 -43 53
-31 216 -99 384 -159 87 -31 170 -61 186 -66 15 -6 27 -13 27 -18 0 -10 -76 5
-122 24 -21 9 -97 32 -170 52 -73 20 -180 54 -238 75 -117 45 -173 49 -178 13
-2 -11 6 -28 17 -38 32 -30 331 -136 381 -136 15 0 59 -12 96 -26 86 -32 404
-115 416 -108 15 9 8 51 -11 68 -11 10 -45 24 -78 33 -55 14 -92 33 -65 33 38
0 177 -36 240 -62 73 -30 88 -55 27 -45 -42 7 -59 -5 -52 -35 8 -30 55 -58 99
-58 19 0 42 -6 53 -13 42 -31 -27 -22 -255 34 -214 53 -298 78 -535 160 -44
15 -140 47 -212 71 -125 40 -134 41 -150 25 -28 -27 -7 -69 42 -85 211 -66
432 -145 445 -158 14 -15 13 -16 -5 -10 -11 3 -97 24 -190 46 -94 22 -193 46
-220 55 -28 8 -62 15 -77 15 -50 0 -62 -67 -16 -91 11 -6 149 -42 307 -80 157
-37 302 -73 321 -79 19 -5 110 -26 202 -45 92 -20 186 -42 210 -51 23 -8 90
-22 147 -30 126 -19 175 -36 86 -30 -114 7 -311 38 -485 77 -96 21 -238 50
-315 64 -77 15 -209 44 -294 66 -168 43 -221 48 -242 23 -11 -13 -11 -20 1
-41 12 -20 32 -31 85 -45 120 -33 733 -159 880 -180 148 -22 185 -31 185 -48
0 -22 -54 -20 -184 6 -104 20 -144 25 -169 17 -26 -7 -42 -5 -84 14 -52 24
-96 33 -263 54 -52 6 -156 26 -230 45 -181 45 -230 45 -230 -2 0 -33 34 -64
71 -64 17 0 66 -9 109 -20 134 -34 428 -80 514 -80 64 0 92 -5 131 -23 l50
-24 -36 -6 c-21 -4 -92 1 -170 12 -74 11 -199 27 -279 35 -80 9 -161 20 -180
26 -19 5 -45 10 -57 10 -25 0 -46 -31 -37 -54 9 -24 122 -52 284 -71 80 -9
155 -19 168 -22 30 -7 23 -25 -14 -35 -32 -9 -275 7 -339 22 -22 5 -83 10
-136 10 -103 0 -127 -10 -114 -48 8 -29 55 -44 151 -51 46 -3 85 -10 87 -16 1
-5 -70 -35 -158 -66 -243 -85 -274 -105 -244 -158 11 -19 26 -27 59 -33 25 -4
64 -13 88 -19 39 -11 42 -14 42 -45 0 -40 25 -56 127 -80 79 -19 256 -13 301
10 23 12 37 11 105 -5 43 -11 86 -23 95 -29 22 -12 26 -12 -320 -11 -269 1
-278 0 -288 -20 -6 -11 -8 -29 -5 -39 12 -37 41 -43 149 -34 141 11 220 10
296 -4 36 -6 131 -12 212 -12 140 0 196 -11 125 -24 -53 -10 -607 -28 -677
-21 -82 7 -115 -8 -115 -50 l0 -30 75 -6 c41 -3 194 -4 340 -1 146 3 263 2
260 -1 -12 -14 -309 -40 -466 -41 -184 -1 -204 -6 -204 -53 0 -18 9 -28 38
-40 49 -21 272 -13 582 21 124 14 275 27 335 30 107 5 109 5 65 -9 -58 -19
-218 -39 -698 -86 -51 -4 -116 -15 -145 -24 -28 -8 -77 -14 -108 -12 -44 1
-62 -2 -78 -17 -23 -21 -28 -65 -9 -84 22 -22 163 -15 244 13 57 20 120 29
296 45 236 21 307 30 483 60 61 10 146 21 190 25 73 5 78 4 61 -10 -11 -8 -29
-15 -40 -15 -11 0 -67 -11 -125 -24 -162 -38 -560 -89 -822 -106 -85 -6 -169
-15 -187 -21 -36 -12 -50 -45 -33 -78 19 -34 69 -36 189 -7 69 17 137 26 188
26 43 0 104 7 134 15 31 8 58 11 63 6 19 -19 -6 -28 -93 -34 -57 -4 -119 -17
-165 -32 -42 -15 -108 -28 -156 -32 -46 -3 -90 -10 -96 -16 -18 -13 -16 -52 2
-67 24 -20 127 -12 264 20 159 36 293 62 299 56 23 -24 -77 -63 -233 -90 -44
-8 -127 -22 -185 -31 -58 -9 -120 -23 -138 -31 -29 -12 -33 -17 -30 -46 6 -61
28 -62 238 -12 203 48 220 50 220 30 0 -15 -21 -26 -50 -26 -10 0 -69 -16
-131 -35 -63 -19 -133 -39 -156 -45 -45 -11 -68 -38 -58 -69 3 -10 15 -21 25
-24 28 -7 134 17 209 48 45 19 67 23 74 16 19 -19 -14 -40 -98 -62 -114 -29
-130 -38 -130 -74 0 -25 5 -32 35 -41 62 -20 50 -37 -45 -63 -145 -39 -136
-122 16 -142 41 -5 93 -12 116 -15 l42 -5 -31 -28 c-23 -21 -29 -32 -24 -49
14 -42 48 -38 167 23 61 31 113 55 115 52 8 -7 -17 -23 -121 -77 -55 -28 -104
-57 -109 -65 -7 -9 -6 -23 2 -39 16 -36 55 -34 128 5 33 18 120 64 195 104 75
40 197 116 270 169 74 53 165 112 203 131 66 33 116 45 116 26 0 -10 -387
-266 -500 -331 -41 -24 -103 -62 -136 -86 -34 -24 -81 -51 -105 -60 -85 -32
-112 -92 -57 -124 26 -14 31 -13 72 8 24 13 84 53 132 89 49 36 112 77 139 90
28 14 84 53 124 85 41 33 91 67 110 75 20 9 54 23 76 33 22 10 123 77 225 150
190 136 214 150 256 150 39 0 27 -23 -29 -56 -29 -17 -205 -131 -392 -254
-187 -123 -398 -259 -470 -302 -71 -44 -134 -83 -138 -88 -15 -14 3 -50 29
-56 37 -9 151 53 406 223 125 84 230 149 232 144 6 -10 -9 -23 -84 -73 -30
-21 -95 -71 -145 -113 -49 -42 -126 -97 -170 -122 -129 -75 -223 -141 -229
-161 -8 -25 1 -49 21 -56 36 -14 234 105 428 258 206 162 329 246 360 246 29
0 14 -20 -42 -58 -32 -22 -98 -76 -148 -121 -93 -83 -338 -264 -435 -321 -121
-70 -154 -108 -124 -141 37 -41 70 -24 349 176 131 94 206 156 277 229 71 74
100 98 108 90 8 -8 -30 -54 -147 -172 -87 -88 -178 -172 -202 -187 -24 -15
-71 -53 -106 -85 -34 -32 -81 -70 -103 -85 -44 -29 -57 -51 -46 -79 11 -27 36
-35 70 -21 36 15 189 141 259 215 28 28 62 58 78 66 25 13 27 13 27 -5 0 -11
-17 -32 -39 -48 -71 -52 -273 -227 -282 -245 -14 -26 6 -58 35 -58 14 0 49 20
79 45 80 65 102 59 49 -14 -15 -21 -54 -95 -87 -165 -65 -139 -65 -155 -7
-167 50 -10 77 0 139 53 32 28 119 96 193 153 74 56 157 121 185 143 79 67 79
35 -1 -53 -38 -42 -85 -96 -104 -120 -19 -24 -56 -60 -82 -79 -82 -63 -110
-123 -67 -146 17 -10 27 -7 59 15 56 39 166 157 252 270 42 55 99 123 128 150
29 28 105 115 170 195 115 142 196 227 207 216 4 -3 -14 -24 -39 -45 -24 -22
-61 -68 -82 -103 -20 -35 -78 -114 -129 -175 -51 -61 -128 -155 -171 -208 -44
-53 -128 -142 -187 -197 -112 -105 -152 -165 -132 -196 5 -10 20 -18 32 -20
32 -5 81 48 391 414 42 49 134 165 205 258 72 93 148 190 171 215 23 25 51 65
63 89 12 23 26 42 32 42 6 0 56 46 110 102 54 56 101 100 104 97 9 -10 -271
-387 -395 -529 -31 -36 -90 -108 -130 -160 -96 -124 -281 -338 -397 -462 -72
-76 -93 -104 -93 -126 0 -34 16 -52 48 -52 29 0 149 120 219 220 26 36 87 108
137 160 50 52 118 132 150 177 32 46 79 99 103 119 24 20 52 53 63 75 11 21
45 67 76 101 31 35 88 110 127 168 81 120 135 190 149 190 17 0 -3 -44 -46
-100 -23 -30 -60 -84 -81 -120 -60 -101 -327 -471 -440 -610 -56 -69 -128
-161 -160 -205 -32 -44 -85 -105 -117 -135 -42 -41 -58 -63 -58 -82 0 -32 32
-58 61 -51 44 12 283 319 472 608 41 62 99 135 109 135 30 0 -30 -132 -124
-270 -191 -281 -262 -381 -312 -439 -31 -36 -56 -73 -56 -83 0 -9 11 -25 25
-34 23 -15 27 -15 49 0 13 8 59 68 102 133 42 65 104 154 138 198 33 44 84
118 112 165 28 47 58 85 65 85 9 0 17 -19 22 -55 4 -30 14 -81 22 -112 8 -32
15 -69 15 -82 0 -31 -180 -395 -227 -458 -27 -38 -34 -55 -31 -85 3 -33 7 -38
29 -41 32 -4 71 38 107 116 13 29 26 51 28 49 6 -6 -24 -150 -48 -230 -21 -71
-20 -126 4 -154 20 -25 57 -34 81 -22 30 16 77 60 77 74 0 30 280 345 307 345
19 0 6 -52 -33 -141 -35 -79 -40 -104 -25 -128 13 -20 62 -5 69 21 3 11 25 62
50 112 35 71 47 107 53 166 4 41 19 103 33 138 38 92 103 320 115 401 5 39 20
89 33 112 33 60 35 26 3 -91 -14 -52 -36 -140 -50 -196 -13 -55 -33 -122 -45
-148 -11 -26 -20 -57 -20 -69 0 -12 -15 -71 -34 -132 -105 -331 -116 -415 -56
-415 39 0 69 68 100 230 6 30 31 129 55 220 24 91 55 210 69 265 56 221 126
459 137 469 9 8 10 5 5 -14 -4 -14 -9 -50 -13 -80 -3 -30 -18 -82 -34 -115
-15 -33 -33 -89 -39 -125 -6 -36 -27 -132 -46 -215 -18 -82 -41 -186 -50 -230
-9 -44 -36 -144 -60 -222 -24 -78 -44 -149 -44 -156 0 -18 32 -47 53 -47 8 0
24 11 35 25 24 30 110 375 122 490 11 101 34 223 66 345 13 52 24 116 24 142
0 27 7 59 15 71 8 12 25 63 38 112 30 109 42 141 58 150 14 9 7 -37 -21 -135
-10 -36 -26 -105 -35 -155 -9 -49 -34 -178 -55 -285 -20 -107 -43 -228 -49
-269 -6 -40 -25 -105 -42 -144 -26 -57 -33 -92 -40 -177 -4 -58 -10 -113 -14
-122 -8 -19 26 -58 50 -58 10 0 31 32 56 83 34 71 44 110 69 258 16 96 35 212
40 259 6 47 26 155 45 240 19 85 50 245 70 355 53 291 69 299 40 20 -20 -194
-20 -215 5 -215 24 0 40 28 40 72 0 46 19 110 31 103 14 -9 11 -61 -10 -197
-11 -68 -23 -170 -26 -228 -4 -58 -11 -132 -15 -165 -5 -33 -16 -133 -25 -223
-9 -89 -23 -186 -31 -215 -32 -114 -43 -180 -34 -197 28 -52 79 -15 97 70 20
96 53 368 69 571 8 107 19 209 23 225 l9 29 22 -49 c22 -48 22 -49 5 -110 -11
-36 -21 -123 -26 -211 -4 -82 -15 -208 -24 -280 -29 -233 -30 -259 -11 -278
10 -9 20 -17 24 -17 40 1 62 121 71 382 3 108 9 200 13 204 4 4 15 -10 24 -32
15 -35 15 -45 1 -114 -20 -95 -26 -212 -18 -320 5 -70 9 -85 23 -88 24 -5 36
29 45 135 8 84 9 86 20 53 6 -19 22 -82 34 -140 25 -113 48 -150 92 -150 30 0
73 32 91 68 7 15 17 59 21 97 8 75 27 135 44 135 7 0 11 -29 11 -74 0 -57 3
-75 15 -80 45 -17 74 91 62 227 -3 34 -3 141 1 237 6 146 10 175 22 175 12 0
16 -28 23 -160 4 -88 9 -239 11 -335 2 -111 7 -184 15 -198 14 -26 47 -29 59
-4 26 49 23 231 -8 527 -20 190 -33 462 -22 480 15 27 42 -104 42 -202 0 -43
9 -159 20 -258 10 -99 27 -260 36 -358 12 -122 22 -183 31 -193 19 -19 27 -18
48 6 14 16 17 35 15 117 -3 115 -3 123 9 123 4 0 11 -36 15 -79 11 -141 44
-197 88 -153 21 21 23 31 22 140 -1 73 -12 175 -28 272 -35 211 -54 355 -61
480 -3 58 -10 132 -15 165 -5 33 -6 76 -1 95 7 34 8 34 19 13 7 -12 17 -65 22
-118 5 -53 21 -146 35 -208 14 -62 33 -177 41 -257 24 -224 61 -476 74 -499
12 -23 49 -28 68 -9 17 17 16 39 -23 297 -38 247 -76 442 -101 513 -9 27 -12
57 -8 84 4 28 -1 65 -15 116 -12 41 -21 90 -21 109 0 20 -11 69 -25 109 -14
40 -22 76 -19 79 10 11 52 -51 63 -93 5 -23 15 -81 21 -131 15 -120 17 -130
56 -204 23 -44 34 -78 34 -107 0 -23 6 -71 14 -106 8 -35 24 -137 36 -228 11
-91 26 -199 32 -240 6 -41 14 -95 17 -119 4 -29 13 -48 28 -58 19 -13 24 -12
42 6 14 14 21 34 21 61 0 52 -24 227 -61 434 -16 93 -27 171 -25 174 11 10 37
-9 46 -33 15 -39 80 -503 80 -568 0 -61 16 -87 54 -87 13 0 31 9 42 21 25 28
22 135 -6 228 -17 56 -30 117 -67 318 -5 28 -3 33 14 33 12 0 25 -6 30 -12 15
-19 60 -200 78 -313 18 -115 40 -169 71 -173 54 -8 58 47 15 233 -16 72 -26
134 -21 139 15 15 38 -37 69 -154 17 -63 38 -120 47 -127 11 -8 24 -9 45 -1
29 10 34 7 112 -69 45 -44 92 -83 104 -87 60 -19 84 48 80 226 -2 128 7 147
51 105 34 -32 53 -34 78 -6 14 15 26 19 49 15 37 -7 110 27 137 64 16 23 17
32 8 77 -6 28 -29 80 -51 115 -21 35 -47 81 -56 103 -39 94 -167 320 -204 363
-16 18 -29 39 -29 46 0 8 -20 52 -45 99 -48 92 -55 120 -29 115 10 -2 50 -63
93 -143 42 -77 95 -171 117 -210 87 -150 185 -347 195 -394 7 -34 23 -64 49
-93 l39 -43 20 20 c46 45 42 62 -95 330 -172 339 -316 593 -379 665 -54 62
-94 135 -81 148 4 4 17 -4 27 -18 62 -80 127 -172 154 -220 18 -30 55 -92 83
-138 28 -46 59 -105 69 -130 9 -26 36 -73 59 -104 23 -32 68 -108 100 -170 72
-142 136 -228 169 -228 18 0 26 7 31 25 6 25 -13 65 -120 250 -26 44 -49 97
-53 118 -4 25 -21 56 -48 88 -48 57 -135 205 -135 232 0 26 35 5 66 -41 36
-52 221 -368 285 -486 57 -104 81 -129 117 -119 43 11 40 67 -8 138 -15 22
-65 104 -111 183 -46 79 -94 161 -107 182 -13 22 -21 44 -17 50 12 20 52 -21
87 -89 20 -37 63 -106 97 -152 35 -46 77 -109 94 -139 36 -62 66 -75 90 -40
14 19 14 27 1 62 -8 23 -23 56 -35 74 -38 63 -14 61 50 -3 65 -66 78 -71 141
-52 35 11 42 9 107 -30 75 -44 103 -50 127 -25 20 20 20 35 0 82 -9 20 -29 75
-45 121 -16 46 -36 95 -44 108 -18 27 -18 27 29 8 46 -19 56 -13 56 31 l0 34
40 -6 c36 -6 40 -4 46 20 3 14 3 37 0 50 -6 26 -175 191 -212 208 -31 14 -54
4 -54 -24 1 -35 20 -61 80 -110 51 -41 100 -100 100 -119 0 -22 -28 -4 -84 54
-34 35 -97 101 -141 147 l-80 83 35 -7 c24 -4 42 -2 54 7 32 23 13 61 -62 121
-96 78 -252 229 -252 244 0 26 25 10 95 -60 39 -40 96 -90 126 -110 30 -21 66
-53 81 -72 45 -56 337 -298 356 -294 49 9 2 96 -90 168 -29 23 -98 85 -153
138 -55 54 -139 130 -187 170 -49 40 -88 75 -88 78 0 24 394 -289 526 -417 50
-49 96 -89 102 -89 22 0 44 47 33 68 -19 35 -225 224 -321 295 -52 39 -142
116 -200 172 -58 56 -140 128 -183 160 -43 32 -92 75 -110 97 -17 21 -60 58
-97 82 -70 47 -223 196 -201 196 16 0 73 -44 171 -134 41 -37 120 -102 175
-144 155 -117 453 -360 526 -428 36 -34 84 -73 107 -88 23 -14 48 -38 56 -53
29 -57 99 -103 153 -103 18 0 45 57 38 79 -3 10 -23 30 -43 44 -50 33 -586
476 -590 488 -2 5 3 12 12 15 10 4 35 -11 68 -38 72 -60 114 -90 173 -123 28
-15 73 -49 100 -75 55 -52 243 -200 254 -200 20 0 52 34 49 53 -2 13 -69 79
-173 170 -93 82 -170 154 -170 160 0 19 37 8 87 -26 73 -51 189 -146 240 -198
49 -51 90 -69 117 -52 44 27 7 79 -113 158 -84 55 -154 120 -143 131 11 11 50
-4 135 -54 188 -112 390 -133 505 -55 21 15 45 39 52 53 20 38 -1 63 -83 101
-74 33 -122 73 -122 101 0 10 7 30 16 43 29 45 12 63 -130 130 -72 34 -179 81
-238 105 -59 23 -115 51 -125 62 -18 20 -17 20 59 13 77 -7 77 -7 89 19 8 16
9 30 3 35 -11 10 -78 34 -171 61 -40 11 -86 32 -103 46 -33 28 -40 50 -12 39
9 -3 52 -13 95 -21 43 -8 139 -37 214 -65 75 -28 175 -61 223 -73 47 -13 100
-31 118 -40 43 -22 78 -20 96 6 22 31 20 55 -7 72 -31 21 -136 53 -215 67 -37
6 -96 22 -132 35 -36 12 -110 39 -165 58 -55 20 -111 36 -124 36 -29 0 -170
47 -189 63 -11 9 -11 13 4 24 25 18 51 16 88 -6 17 -10 94 -38 171 -61 77 -23
201 -61 276 -85 165 -53 303 -75 326 -52 10 10 13 24 9 40 -7 29 -63 54 -186
81 -41 10 -145 37 -230 60 -85 24 -245 65 -355 91 -266 62 -328 81 -350 105
-10 11 -16 22 -13 25 3 3 55 -12 115 -34 99 -35 374 -98 637 -146 50 -9 115
-25 145 -35 76 -26 250 -63 266 -56 22 8 46 52 39 70 -4 9 -20 24 -36 32 l-29
15 30 35 c17 19 31 39 31 45 0 19 -49 59 -72 59 -91 2 -246 24 -341 49 -108
29 -419 92 -522 106 -27 4 -59 12 -69 17 -41 22 11 27 120 12 60 -8 160 -21
221 -30 62 -8 157 -28 210 -45 60 -18 139 -34 203 -39 58 -6 126 -15 152 -21
55 -13 83 -6 103 25 12 17 12 29 3 59 -8 28 -8 43 0 62 17 36 15 59 -5 78 -17
14 -252 63 -337 69 -42 3 -59 22 -28 30 10 3 41 1 68 -4 27 -4 96 -12 154 -17
58 -5 112 -12 121 -15 21 -9 68 10 75 29 4 9 -1 24 -10 34 -24 27 -19 47 17
69 79 49 116 123 84 167 -9 12 -61 36 -133 60 -74 25 -119 45 -119 54 0 7 24
22 53 33 53 20 61 33 41 69 -8 16 -5 26 16 51 25 30 27 58 3 83 -12 13 -152 8
-298 -10 -63 -7 -160 -16 -215 -20 -55 -3 -143 -12 -195 -20 -139 -21 -390
-18 -390 6 0 4 15 5 33 2 37 -6 423 40 529 63 47 10 153 18 294 22 199 6 224
9 243 26 32 29 27 63 -14 87 -42 25 -43 32 -10 71 30 35 30 39 7 69 -21 25
-71 28 -143 9 -60 -16 -301 -59 -419 -74 -58 -8 -170 -26 -250 -39 -173 -31
-326 -47 -424 -46 -83 0 -70 9 49 33 44 9 109 23 145 31 36 8 94 15 130 15 84
1 230 39 244 63 24 40 -42 56 -159 38 -27 -5 -145 -22 -261 -40 -116 -17 -232
-37 -259 -45 -76 -23 -92 0 -23 35 82 42 125 51 313 64 146 11 209 20 275 40
47 14 146 39 220 56 230 51 433 109 455 130 18 18 19 21 5 47 -22 39 -60 39
-165 -1 -50 -19 -128 -44 -175 -55 -47 -12 -110 -30 -141 -41 -31 -11 -76 -24
-100 -27 l-43 -7 43 38 c40 36 52 41 181 67 149 30 253 66 366 129 80 44 97
60 92 86 -6 31 -42 26 -144 -20 -125 -56 -266 -102 -288 -94 -23 9 -20 32 7
49 12 7 67 33 122 56 113 48 263 144 284 183 19 35 7 75 -28 93 -15 8 -67 20
-114 26 -46 6 -99 15 -116 21 -40 14 -41 43 -2 64 16 8 32 23 36 34 6 21 -8
66 -25 76 -6 3 -61 -18 -123 -48 -190 -92 -255 -114 -232 -77 4 6 73 44 155
85 145 73 190 107 190 146 0 23 -35 42 -62 33 -11 -3 -57 -30 -102 -59 -128
-83 -426 -255 -479 -276 -90 -36 -125 -11 -41 29 25 12 96 57 157 100 62 43
173 119 247 169 156 105 190 134 190 162 0 20 -27 41 -53 41 -7 0 -122 -80
-255 -177 -253 -187 -424 -291 -492 -300 -35 -5 -40 -3 -40 15 0 15 28 39 105
89 281 182 464 312 588 418 65 56 78 71 75 93 -3 30 -45 46 -82 32 -24 -9 -80
-59 -111 -101 -19 -24 -149 -123 -300 -228 -38 -26 -89 -64 -112 -83 -23 -20
-91 -64 -150 -98 -59 -35 -127 -76 -151 -93 -24 -16 -46 -26 -49 -23 -11 11
32 48 137 119 58 39 132 97 166 129 34 32 104 91 156 131 268 203 388 310 388
345 0 21 -29 52 -49 52 -7 0 -52 -37 -99 -83 -83 -79 -262 -227 -402 -331 -36
-27 -85 -68 -110 -91 -45 -42 -80 -62 -80 -46 0 10 126 131 240 230 125 108
400 390 400 410 0 28 -35 54 -62 46 -13 -4 -91 -73 -174 -154 -264 -256 -447
-426 -534 -495 -47 -37 -135 -119 -196 -182 -98 -102 -134 -130 -134 -106 0 4
147 156 326 337 345 348 621 655 630 703 7 33 -15 57 -44 48 -20 -7 -150 -146
-262 -281 -41 -49 -110 -125 -154 -167 -75 -73 -106 -93 -106 -67 0 12 62 95
159 214 36 44 114 152 174 239 83 121 107 164 103 181 -16 62 -77 24 -141 -86
-27 -46 -71 -109 -100 -139 -28 -30 -68 -81 -89 -113 -51 -79 -191 -224 -176
-183 32 89 92 182 137 216 27 19 59 56 73 81 14 25 50 79 81 120 72 95 119
172 119 193 0 10 -4 16 -8 14 -16 -6 -121 -132 -167 -200 -26 -38 -51 -68 -56
-68 -16 0 -10 26 15 61 39 54 146 236 162 276 26 60 -1 113 -57 113 -36 0 -96
-29 -141 -69 -84 -72 -102 -57 -38 30 23 29 44 65 47 78 15 60 -48 78 -82 22
-30 -50 -281 -385 -305 -406 -16 -14 -23 -16 -32 -7 -9 9 -2 25 28 69 23 32
63 96 89 143 26 47 69 117 95 155 75 114 90 176 43 183 -25 4 -25 3 -134 -173
-44 -71 -102 -161 -128 -200 -27 -38 -58 -88 -69 -110 -11 -22 -35 -53 -52
-70 l-32 -30 16 40 c9 22 42 85 73 140 31 55 77 138 103 185 25 47 67 117 92
157 87 133 96 165 54 185 -31 14 -54 5 -65 -25 -5 -12 -34 -65 -65 -116 -31
-51 -70 -120 -87 -153 -40 -79 -179 -313 -240 -404 -26 -39 -55 -88 -63 -109
-13 -30 -19 -36 -28 -27 -13 13 -12 15 102 232 33 63 91 180 127 260 37 80 83
169 103 199 55 84 99 165 100 182 0 23 -26 42 -49 34 -21 -6 -140 -209 -215
-365 -25 -52 -70 -137 -100 -189 -31 -52 -57 -99 -59 -105 -2 -6 -8 -8 -13 -3
-4 4 6 36 23 70 17 34 34 73 38 87 7 25 102 203 201 377 29 50 55 100 58 111
8 25 -2 50 -26 63 -28 15 -56 2 -74 -34 -48 -96 -139 -248 -142 -239 -4 13 61
161 95 215 25 40 25 63 -2 73 -19 8 -49 -18 -83 -71 -39 -62 -38 -24 2 59 38
78 38 101 3 112 -33 10 -74 -46 -168 -232 -79 -154 -99 -185 -99 -149 0 18 64
163 120 272 48 95 50 128 6 128 -27 0 -32 -6 -54 -59 -13 -33 -36 -78 -51
-100 -16 -23 -42 -68 -59 -101 -51 -98 -78 -123 -69 -62 5 35 109 288 132 324
29 44 8 92 -34 78 -20 -6 -53 -54 -66 -96 -21 -68 -47 -129 -56 -129 -28 0 14
182 62 266 39 68 40 124 3 153 -45 36 -86 28 -172 -33 -43 -30 -90 -68 -106
-85 -42 -44 -57 -41 -55 12 4 66 -16 84 -53 50 -27 -24 -138 -397 -138 -464 0
-51 -56 -353 -72 -386 -7 -15 -21 -29 -31 -31 -24 -5 -23 52 2 116 11 26 27
97 36 158 9 60 23 138 31 174 8 36 23 120 33 187 13 87 28 142 50 189 33 71
31 96 -10 109 -31 10 -55 -19 -73 -89 -24 -97 -82 -399 -111 -574 -54 -338
-70 -392 -115 -392 -32 0 -26 74 20 240 22 80 49 208 60 285 29 196 47 283 87
410 18 60 33 118 31 129 -4 27 -34 44 -55 30 -33 -21 -94 -239 -118 -424 -15
-114 -42 -227 -56 -235 -4 -3 -5 43 -2 103 6 132 54 390 88 473 37 92 40 121
16 143 -36 32 -68 15 -85 -47 -19 -66 -41 -196 -61 -363 -9 -72 -19 -144 -24
-160 -7 -27 -8 -25 -15 23 -8 57 -4 130 21 356 l17 148 -21 21 c-43 43 -76 -4
-92 -133 -6 -46 -13 -185 -16 -309 -2 -124 -9 -245 -15 -270 -6 -25 -15 -100
-19 -168 -7 -109 -20 -157 -36 -141 -3 3 -9 28 -15 57 -6 36 -5 87 6 179 8 70
19 268 24 438 5 171 12 320 16 333 9 32 -14 81 -43 88 -46 12 -57 -14 -65
-149 -10 -167 -18 -463 -22 -764 -1 -139 -5 -255 -8 -258 -19 -20 -28 704 -11
1007 6 127 0 148 -42 148 -12 0 -28 -6 -34 -13 -7 -9 -12 -121 -13 -347 -2
-254 -6 -334 -15 -337 -21 -7 -30 35 -49 222 -24 235 -28 376 -14 447 13 67 3
94 -35 104 -39 10 -54 -10 -57 -79 l-3 -62 -23 62 c-29 79 -67 101 -127 72z
m1379 -438 c3 -5 -13 -46 -37 -92 -57 -114 -77 -204 -87 -411 -14 -269 -33
-333 -134 -448 -64 -73 -140 -202 -195 -329 -50 -115 -64 -123 -163 -92 -139
44 -150 58 -98 118 17 19 50 73 74 121 60 119 78 139 192 230 119 94 210 191
236 250 14 31 23 91 33 215 15 186 23 220 86 337 54 100 78 126 93 101z
m-1368 -390 c1 -209 5 -481 9 -604 l8 -225 -25 -25 c-40 -39 -203 -62 -228
-31 -17 19 -3 115 45 324 41 176 78 384 104 585 11 83 29 188 41 235 11 47 23
96 26 109 13 60 17 -16 20 -368z m129 -441 c0 -224 -4 -341 -11 -353 -8 -14
-12 31 -17 185 -9 271 -9 803 1 853 11 66 26 -311 27 -685z m-1284 618 c19
-95 63 -194 133 -303 l46 -70 -63 66 c-96 102 -157 238 -157 352 0 76 21 53
41 -45z m1800 -393 c-16 -77 -29 -126 -30 -110 -1 34 20 178 40 275 l14 65 2
-45 c2 -25 -10 -108 -26 -185z m696 -27 c-3 -61 -14 -130 -26 -168 -22 -71
-125 -257 -232 -420 -41 -62 -72 -120 -76 -142 -3 -23 -11 -38 -19 -38 -49 0
29 164 176 370 37 52 74 109 83 125 28 56 57 165 68 258 12 101 15 117 25 117
4 0 4 -46 1 -102z m-1109 15 c13 -24 15 -490 3 -497 -15 -10 -21 21 -33 163
-20 237 -16 351 11 351 6 0 14 -8 19 -17z m-1227 -128 c97 -149 112 -199 103
-336 -7 -108 11 -224 51 -318 12 -30 21 -60 18 -66 -6 -18 -125 -85 -149 -85
-50 0 -111 111 -135 246 -15 87 -7 234 20 344 25 101 26 146 6 220 -18 66 -20
123 -4 118 6 -2 46 -58 90 -123z m176 -64 c19 -43 27 -83 33 -176 5 -66 14
-135 21 -153 9 -26 9 -40 -1 -60 -12 -25 -13 -26 -20 -7 -4 11 -10 72 -13 135
-10 169 -41 276 -109 372 -11 16 -16 33 -13 39 9 13 69 -75 102 -150z m337 35
c13 -69 44 -331 40 -335 -12 -12 -33 39 -34 79 0 25 -7 80 -15 123 -17 88 -20
167 -6 167 5 0 12 -15 15 -34z m2132 -177 c-117 -263 -199 -415 -217 -404 -18
11 -10 71 12 91 12 10 33 42 47 69 13 28 43 79 66 115 23 36 57 102 77 147 38
84 79 157 85 151 2 -2 -30 -78 -70 -169z m-3976 46 c9 -8 86 -61 171 -118 85
-57 321 -215 524 -351 379 -253 425 -287 425 -317 0 -19 -74 -90 -120 -114
-17 -9 -40 -15 -51 -13 -10 2 -182 163 -381 358 -208 204 -408 391 -468 437
-58 44 -116 93 -129 107 -22 23 -22 26 -6 26 10 0 26 -7 35 -15z m3710 -18 c0
-7 -37 -71 -81 -143 -86 -136 -138 -235 -158 -295 -11 -35 -51 -83 -51 -62 0
23 43 150 67 198 14 28 53 88 87 135 35 47 75 106 90 133 26 46 46 60 46 34z
m-2030 -265 c23 -178 23 -169 10 -156 -18 18 -50 193 -55 302 l-5 107 15 -50
c8 -27 24 -119 35 -203z m2342 56 c-57 -119 -160 -294 -169 -285 -7 8 83 188
153 304 37 62 69 111 71 109 2 -2 -23 -59 -55 -128z m711 120 c-4 -7 -75 -94
-158 -193 -83 -99 -179 -216 -215 -260 -35 -44 -90 -109 -123 -145 -32 -35
-97 -113 -145 -172 -48 -61 -97 -111 -109 -114 -18 -5 -41 12 -118 82 -136
127 -136 126 75 266 69 46 241 170 384 277 142 106 286 211 319 232 59 38 106
52 90 27z m-1025 -136 c-65 -105 -110 -193 -129 -251 -35 -108 -74 -129 -44
-24 22 76 76 182 132 261 47 66 80 77 41 14z m-3356 -267 c17 -22 -13 3 -66
55 -54 52 -107 109 -118 125 -28 39 144 -128 184 -180z m2333 -34 c66 -4 132
-13 146 -19 15 -6 73 -20 130 -32 72 -15 134 -37 204 -70 55 -27 125 -58 156
-69 79 -30 148 -74 322 -204 202 -152 332 -289 437 -461 23 -38 59 -92 80
-120 36 -48 139 -244 154 -293 7 -21 5 -22 -23 -17 -42 9 -47 -10 -22 -89 11
-36 29 -116 40 -179 32 -174 53 -242 75 -246 18 -4 19 2 13 104 -4 60 -9 127
-12 149 -6 37 -5 39 9 21 8 -10 22 -48 31 -85 20 -83 40 -404 31 -493 -7 -66
-8 -68 -36 -68 -15 0 -33 -6 -39 -14 -6 -7 -15 -74 -20 -147 -5 -92 -13 -144
-25 -166 -9 -18 -26 -72 -37 -120 -22 -96 -52 -185 -93 -277 -14 -32 -26 -67
-26 -78 0 -30 30 -34 51 -7 13 17 19 20 19 8 0 -17 -88 -167 -125 -213 -21
-27 -26 -29 -49 -18 -24 11 -31 8 -84 -38 -79 -69 -80 -71 -106 -110 -24 -38
-49 -46 -54 -17 -2 12 25 48 80 105 46 48 101 119 124 157 22 39 69 114 104
169 66 104 84 162 57 184 -8 7 -21 10 -29 7 -8 -3 -41 -63 -75 -133 -86 -181
-117 -215 -372 -420 -36 -29 -92 -73 -123 -99 -31 -25 -83 -60 -115 -78 -62
-34 -77 -66 -40 -89 18 -11 31 -6 160 69 26 15 51 25 54 22 10 -11 -88 -104
-139 -132 -29 -16 -102 -61 -161 -102 -60 -40 -116 -73 -125 -73 -17 1 -14 4
64 65 17 14 23 26 19 38 -9 22 -23 21 -105 -3 -71 -21 -120 -52 -120 -75 0
-26 38 -43 76 -35 57 13 35 -12 -33 -38 -62 -23 -77 -39 -67 -67 4 -10 20 -15
49 -15 42 0 185 63 310 137 28 16 58 32 68 36 34 13 7 -12 -49 -44 -35 -20
-61 -43 -71 -63 -8 -18 -23 -38 -34 -44 -24 -15 -208 -85 -279 -106 -30 -9
-77 -25 -105 -35 -138 -52 -401 -78 -635 -62 -178 12 -252 27 -483 97 -175 52
-288 104 -452 204 -199 122 -294 199 -396 320 -34 41 -86 100 -115 130 -99
104 -244 349 -321 540 -68 168 -78 201 -113 370 -24 118 -30 169 -30 275 0
213 19 469 41 573 64 294 229 638 413 860 155 187 216 243 404 369 211 141
312 192 532 268 148 51 182 59 330 76 91 10 174 21 185 23 25 5 208 -1 370
-13z m-2321 -141 c62 -66 77 -90 58 -90 -12 0 -116 110 -131 138 -22 41 6 23
73 -48z m205 -40 c23 -28 98 -100 167 -161 120 -108 144 -139 106 -139 -23 0
-347 324 -338 339 12 19 21 13 65 -39z m3931 -1 c0 -20 -228 -324 -237 -315
-11 11 41 100 122 209 80 106 115 138 115 106z m-241 -156 c-99 -138 -155
-203 -176 -203 -29 0 -8 36 80 136 50 57 112 129 137 160 81 101 53 37 -41
-93z m198 -90 c-14 -26 -50 -76 -81 -111 -31 -34 -73 -92 -93 -127 -21 -36
-41 -65 -45 -65 -11 0 -10 2 8 46 23 56 77 137 157 238 75 93 95 101 54 19z
m-3799 -33 c50 -49 92 -96 92 -104 0 -47 -53 -11 -112 77 -22 34 -52 74 -66
90 -14 15 -22 27 -16 27 5 0 51 -40 102 -90z m-79 -104 c63 -76 70 -88 53 -94
-25 -8 -132 120 -132 157 0 24 20 8 79 -63z m-784 -19 c39 -14 111 -44 162
-66 132 -58 263 -83 395 -75 70 5 116 3 140 -5 35 -12 108 -80 108 -101 0 -21
-83 -161 -101 -170 -27 -15 -247 14 -312 41 -28 12 -109 60 -180 106 -90 60
-152 93 -215 114 -173 60 -211 68 -337 69 -123 1 -366 22 -397 35 -37 15 -15
22 70 22 48 0 107 6 132 13 25 7 97 21 160 30 156 25 282 20 375 -13z m5959
-176 c3 -4 -28 -18 -69 -30 -40 -11 -124 -48 -187 -80 -229 -121 -330 -148
-481 -131 -60 7 -116 7 -175 0 -88 -11 -150 -36 -326 -131 l-59 -33 -20 25
c-11 13 -33 52 -50 87 -26 56 -28 66 -17 92 16 40 135 115 225 143 103 31 308
31 460 -2 148 -32 294 -27 405 14 41 15 95 33 120 41 51 14 166 18 174 5z
m-5614 -299 c51 -20 83 -25 153 -26 56 0 86 -4 84 -11 -5 -13 -132 -9 -207 6
-62 13 -130 44 -130 60 0 7 7 8 18 4 9 -4 46 -19 82 -33z m-228 -8 c69 -57
194 -102 350 -125 90 -13 88 -29 -4 -29 -114 0 -221 36 -328 111 -33 23 -60
48 -60 55 0 20 8 17 42 -12z m5623 -4 c-17 -27 -250 -119 -264 -104 -3 4 -1 9
4 11 6 2 62 26 125 52 118 50 146 59 135 41z m-381 -29 c14 -22 -32 -34 -164
-43 -161 -10 -275 -38 -383 -95 -47 -25 -71 -33 -78 -26 -35 35 51 97 184 134
99 28 429 50 441 30z m-259 -131 c-16 -4 -61 -15 -99 -25 -85 -20 -154 -54
-207 -102 -53 -48 -63 -34 -13 18 84 87 158 119 274 118 57 -1 68 -3 45 -9z
m420 -59 c-16 -14 -262 -78 -366 -95 -118 -19 -193 -45 -269 -91 -59 -36 -84
-43 -95 -25 -10 17 13 47 62 79 66 44 219 89 344 101 107 11 178 23 264 45 49
13 80 5 60 -14z m-5214 -8 c26 -13 56 -16 127 -15 92 3 93 2 90 -20 -3 -20
-10 -23 -52 -26 -56 -4 -174 30 -209 59 -29 24 -3 26 44 2z m5994 -291 c-11
-9 -228 -50 -465 -86 -344 -54 -842 -94 -826 -67 7 11 52 18 243 36 84 8 221
26 305 39 84 14 214 30 288 36 74 6 164 18 200 25 95 21 108 22 190 24 40 0
70 -3 65 -7z m-5835 -67 c15 -19 7 -183 -13 -242 -12 -38 -13 -38 -77 -45 -36
-4 -261 -14 -500 -23 -239 -8 -463 -20 -498 -26 -71 -13 -181 -4 -164 13 6 6
61 21 124 34 132 27 132 27 483 133 149 44 315 90 370 101 55 11 134 31 175
45 90 29 85 29 100 10z m4511 -224 c53 -11 127 -29 164 -40 37 -12 154 -33
259 -47 114 -15 268 -45 386 -74 107 -27 254 -58 325 -69 251 -41 260 -61 28
-60 -93 0 -215 6 -273 13 -69 8 -124 9 -160 3 -30 -5 -111 -6 -180 -3 -69 4
-177 7 -240 7 -63 0 -160 4 -215 10 -69 7 -120 7 -165 0 -35 -6 -67 -7 -71 -3
-4 4 -10 72 -14 151 l-7 144 34 -6 c18 -4 76 -15 129 -26z m1299 1 c0 -5 -80
-14 -177 -20 -221 -15 -290 -15 -277 -2 18 18 454 39 454 22z m-5864 -186 c27
-20 16 -23 -161 -36 -109 -8 -197 -8 -320 -1 -93 6 -271 11 -395 12 -124 0
-234 4 -245 8 -46 18 57 22 415 17 206 -4 429 -2 495 2 179 13 190 13 211 -2z
m-41 -127 c4 -6 4 -13 0 -17 -8 -9 -359 -9 -400 -1 -30 6 -30 6 -5 13 14 3 81
7 150 9 69 1 153 4 187 5 35 1 65 -3 68 -9z m4559 -45 c98 -3 176 -14 176 -25
0 -5 -48 -9 -107 -9 -60 0 -125 -3 -145 -6 -35 -6 -38 -5 -38 18 0 31 9 41 29
31 9 -4 47 -8 85 -9z m711 -33 c51 -11 -168 -12 -270 -1 -57 6 -43 7 80 8 83
0 168 -3 190 -7z m-1005 -186 c-14 -99 -25 -121 -34 -71 -9 45 1 118 23 171
16 40 16 40 19 11 2 -16 -2 -66 -8 -111z m196 116 c10 -10 156 -26 339 -36 61
-4 126 -11 145 -15 36 -10 -123 -7 -382 6 -126 7 -128 7 -128 30 0 25 10 30
26 15z m1224 -162 c220 -32 391 -78 293 -79 -49 0 -321 34 -443 56 -173 30
-194 36 -179 45 18 13 157 3 329 -22z m-992 5 c-7 -6 -140 -32 -204 -39 -65
-7 -86 3 -57 26 21 19 279 31 261 13z m-4549 -66 c5 -13 16 -54 25 -92 10 -38
31 -96 47 -128 39 -77 36 -114 -10 -145 -56 -37 -158 -64 -277 -73 -152 -11
-393 -83 -478 -142 -70 -50 -238 -199 -341 -305 -102 -104 -135 -129 -135
-103 0 5 13 24 28 42 16 18 66 82 113 143 114 148 195 233 282 292 91 64 137
87 264 134 173 64 260 137 356 298 27 45 56 85 65 91 28 16 52 11 61 -12z
m4459 -188 c94 -32 206 -96 301 -173 58 -46 110 -111 99 -122 -2 -2 -38 26
-80 63 -121 107 -291 200 -398 217 -55 9 -103 32 -94 46 9 14 72 3 172 -31z
m-51 -91 c132 -60 238 -136 388 -278 77 -73 166 -150 198 -172 55 -39 74 -69
41 -69 -25 0 -65 33 -228 183 -226 208 -305 263 -444 313 -94 34 -106 42 -91
61 14 16 27 13 136 -38z m-106 -166 c65 -32 103 -65 314 -273 275 -271 299
-287 509 -340 115 -29 296 -99 325 -126 26 -24 1 -29 -47 -11 -137 52 -187 67
-287 87 -307 60 -365 84 -520 212 -120 99 -195 150 -271 184 -82 36 -191 64
-252 64 -62 0 -74 15 -44 58 11 15 32 55 47 87 37 84 49 95 105 95 34 0 67
-10 121 -37z m-4190 -37 c-16 -19 -92 -51 -196 -81 -65 -19 -127 -28 -231 -34
-134 -7 -146 -10 -218 -44 -84 -40 -100 -37 -33 6 64 42 157 67 251 67 112 1
217 21 317 63 93 38 129 46 110 23z m49 -75 c0 -5 -32 -25 -70 -45 -97 -51
-237 -85 -385 -93 -66 -3 -137 -12 -157 -19 -21 -7 -38 -9 -38 -4 0 20 189 60
286 60 68 0 181 30 279 74 92 41 85 39 85 27z m4645 -165 c162 -144 233 -183
396 -216 119 -25 200 -54 237 -85 43 -37 21 -38 -63 -4 -43 17 -119 39 -169
49 -180 37 -294 96 -408 214 -38 39 -102 126 -93 126 3 0 48 -38 100 -84z
m-4610 65 c-47 -46 -256 -111 -375 -117 l-85 -4 85 20 c115 27 263 69 319 91
52 21 70 24 56 10z m202 -163 c46 -50 83 -110 83 -136 0 -15 -23 -47 -64 -90
-35 -37 -97 -110 -136 -162 -40 -52 -98 -122 -130 -155 -61 -63 -259 -313
-318 -402 -34 -51 -54 -64 -67 -43 -7 11 16 51 165 290 122 194 173 285 272
480 142 282 138 277 195 218z m3536 -85 c54 -58 202 -271 193 -280 -12 -12
-261 282 -251 297 11 17 30 11 58 -17z m-4608 -101 c-9 -8 -148 -94 -279 -172
-70 -42 -28 -3 57 54 106 70 260 152 222 118z m4664 -162 c53 -63 146 -173
208 -243 132 -150 244 -289 239 -295 -16 -16 -185 164 -425 451 -168 203 -184
224 -176 237 10 16 40 -13 154 -150z m-74 -80 c61 -63 150 -162 197 -220 47
-58 132 -157 189 -220 57 -63 120 -138 141 -165 20 -28 81 -91 135 -141 102
-94 179 -192 170 -216 -3 -8 -22 6 -53 40 -27 29 -103 111 -169 181 -174 185
-298 321 -405 446 -51 61 -160 178 -241 260 -106 109 -148 159 -153 182 -12
54 3 58 42 11 20 -24 86 -95 147 -158z m-3365 164 c0 -18 -36 -63 -139 -174
-64 -69 -160 -177 -213 -240 -92 -111 -198 -221 -198 -208 0 19 271 343 439
526 85 91 111 114 111 96z m3154 -116 c110 -120 338 -377 430 -486 177 -209
228 -263 338 -354 95 -79 128 -118 99 -118 -5 0 -50 33 -100 74 -50 41 -159
118 -243 172 -84 54 -193 127 -243 163 -110 79 -118 84 -387 261 -229 150
-244 166 -190 194 15 8 50 38 77 66 103 108 140 112 219 28z m-3053 35 c-18
-36 -201 -241 -314 -355 -127 -128 -184 -164 -71 -45 76 80 197 221 286 333
55 70 69 82 96 83 9 1 10 -4 3 -16z m528 -324 c13 -23 12 -38 -6 -133 -27
-135 -49 -180 -134 -271 -85 -92 -112 -135 -146 -232 -27 -76 -28 -83 -28
-308 l0 -230 -27 -40 c-15 -22 -36 -65 -48 -97 -23 -62 -58 -104 -48 -58 3 14
17 65 32 114 33 113 33 155 -4 320 -34 152 -51 296 -40 335 11 40 76 164 125
241 94 146 145 284 145 390 0 25 5 51 11 57 16 16 149 -54 168 -88z m126 -186
c-9 -59 -91 -223 -100 -201 -4 11 9 53 39 116 33 71 46 111 46 143 0 25 3 49
8 53 10 11 15 -60 7 -111z m145 44 c-1 -74 -119 -308 -229 -451 -31 -41 -69
-96 -86 -123 -25 -41 -30 -45 -33 -26 -5 32 39 107 115 200 61 73 123 181 123
212 0 7 17 55 38 105 22 50 42 99 45 109 10 27 27 10 27 -26z m1476 25 c33
-27 115 -150 138 -206 17 -43 20 -76 22 -211 3 -225 22 -270 196 -461 81 -89
109 -128 154 -217 52 -104 63 -137 46 -137 -4 0 -23 26 -41 57 -56 93 -105
134 -234 196 -188 90 -259 176 -292 352 -47 248 -76 319 -181 436 -36 41 -75
86 -86 102 l-20 27 29 11 c15 5 57 23 93 38 76 34 145 39 176 13z m420 -44
c29 -57 94 -249 94 -278 0 -23 -18 -36 -32 -22 -6 6 -15 35 -19 64 -5 29 -30
101 -55 160 -27 61 -44 113 -40 123 9 23 23 11 52 -47z m-1791 -40 c-20 -92
-49 -164 -78 -192 -45 -45 -44 -19 1 71 22 43 45 95 52 116 14 46 34 50 25 5z
m446 -7 c23 -19 24 -24 31 -233 3 -117 11 -258 17 -313 13 -129 14 -836 1
-815 -5 8 -10 29 -10 47 0 18 -11 67 -25 110 -33 102 -99 421 -125 602 -12 79
-36 203 -54 275 -46 181 -70 310 -63 330 10 26 196 23 228 -3z m405 -42 c9 -7
9 -20 -1 -52 -7 -23 -18 -117 -25 -207 -13 -193 -16 -203 -36 -176 -11 16 -14
64 -14 231 0 117 3 215 7 219 9 8 53 -1 69 -15z m-258 -620 c-1 -341 -6 -623
-10 -625 -4 -2 -10 1 -14 7 -8 13 -6 1218 2 1231 23 37 26 -28 22 -613z m111
175 c-3 -276 -7 -396 -16 -405 -18 -18 -27 194 -20 506 4 154 10 291 13 304 6
21 8 21 17 6 5 -10 8 -170 6 -411z m1076 94 c17 -82 52 -163 100 -229 44 -61
28 -75 -27 -23 -75 73 -117 185 -144 383 -23 175 -17 190 22 57 19 -65 41
-150 49 -188z m-3415 288 c0 -8 -191 -231 -200 -234 -31 -11 2 39 88 131 86
94 112 118 112 103z m1187 -223 c-21 -37 -96 -204 -103 -228 -8 -29 -8 -29
-12 13 -2 24 4 65 13 91 15 47 77 131 96 131 6 0 8 -3 6 -7z m2139 -124 c50
-147 71 -181 214 -360 49 -61 107 -145 128 -187 41 -78 92 -230 92 -271 0 -49
-24 -11 -47 74 -30 115 -60 164 -210 353 -140 177 -185 250 -220 359 -18 59
-21 78 -12 90 20 23 31 10 55 -58z m-687 -290 c35 -215 72 -628 52 -584 -13
31 -59 317 -71 440 -10 113 -14 282 -5 274 2 -3 13 -61 24 -130z"/>
<path d="M4999 5554 c-144 -26 -257 -82 -374 -187 -156 -140 -229 -310 -255
-601 -11 -113 -3 -357 16 -539 8 -68 38 -112 83 -122 36 -8 59 -33 66 -71 8
-43 -6 -56 -69 -65 -54 -7 -97 -28 -176 -85 -47 -35 -91 -28 -182 28 -39 23
-99 59 -132 79 -66 38 -68 43 -50 126 13 66 -19 108 -64 84 -29 -15 -75 -117
-80 -176 -6 -69 5 -84 136 -186 165 -129 182 -148 182 -200 1 -116 70 -130
109 -22 14 39 21 48 40 48 19 0 26 -8 36 -43 16 -51 31 -72 55 -72 23 0 50 32
50 59 0 12 6 37 14 56 13 29 22 36 76 51 52 14 68 25 103 67 25 29 64 61 98
78 140 70 157 193 41 303 -29 28 -65 74 -80 101 -26 48 -27 56 -24 180 4 164
21 248 70 338 62 117 102 119 197 12 77 -88 140 -119 232 -113 38 2 82 11 98
20 17 9 48 25 69 37 73 39 97 72 111 154 7 45 29 48 90 14 46 -26 54 -51 31
-96 -21 -39 -20 -70 0 -78 22 -8 152 36 181 62 21 19 26 43 24 109 -1 44 -76
109 -206 182 -162 91 -193 99 -360 98 -121 0 -148 -3 -200 -23 -131 -51 -150
-35 -54 44 88 73 77 69 226 74 12 1 38 15 56 31 47 41 73 39 94 -7 l18 -37
115 -2 c93 -2 124 -6 160 -23 62 -28 98 -27 111 3 46 101 -328 328 -535 325
-39 0 -105 -7 -147 -15z m111 -564 c11 -11 20 -25 20 -30 0 -18 -48 -60 -68
-60 -24 0 -72 37 -72 56 0 24 39 54 70 54 17 0 39 -9 50 -20z"/>
<path d="M3075 5545 c-142 -31 -287 -95 -388 -171 -34 -25 -72 -51 -84 -56
-11 -6 -29 -25 -39 -43 -15 -28 -16 -36 -5 -49 19 -23 33 -20 120 23 43 22
114 51 158 66 44 14 88 32 99 40 27 20 74 18 125 -5 33 -15 66 -20 132 -20 87
0 88 0 98 -28 6 -17 27 -37 57 -54 98 -56 98 -60 -3 -54 -56 3 -117 -1 -160
-9 -38 -8 -105 -19 -148 -25 -140 -21 -261 -74 -323 -142 -18 -21 -34 -49 -34
-62 0 -49 91 -143 126 -129 7 3 18 22 24 42 11 42 32 64 72 80 43 16 58 5 58
-45 0 -34 7 -51 33 -81 68 -80 116 -108 202 -118 32 -4 80 -19 105 -32 38 -21
54 -24 100 -19 36 3 70 0 98 -10 54 -18 95 -8 205 48 86 45 127 86 127 127 0
39 -116 208 -168 246 -35 26 -54 55 -36 55 22 0 135 -72 164 -104 19 -21 57
-60 83 -87 38 -38 50 -58 54 -90 5 -31 12 -43 31 -52 21 -10 27 -8 44 13 19
23 20 34 14 143 -5 102 -9 122 -30 155 -14 20 -44 72 -68 114 -75 135 -212
237 -398 298 -148 48 -324 62 -445 35z m170 -539 c38 -39 11 -86 -49 -86 -59
0 -89 63 -44 94 32 23 65 20 93 -8z m413 -83 c2 -12 -19 -43 -59 -86 -103
-113 -156 -123 -105 -21 13 27 27 61 31 76 8 33 32 55 65 60 36 6 65 -6 68
-29z"/>
<path d="M5916 4528 c-3 -7 -12 -92 -20 -188 -16 -181 -12 -389 7 -402 20 -13
36 5 46 53 14 64 14 452 1 501 -12 40 -28 57 -34 36z"/>
<path d="M6032 4381 c-9 -5 -12 -37 -11 -117 0 -60 1 -123 1 -139 0 -17 -12
-78 -27 -135 -46 -178 -49 -223 -18 -234 25 -10 41 12 48 67 4 29 16 88 28
132 17 66 20 109 20 243 -1 125 -4 167 -14 178 -8 8 -19 10 -27 5z"/>
<path d="M5747 3923 c-2 -5 -19 -55 -37 -113 -18 -58 -38 -117 -46 -132 -16
-32 -10 -55 18 -64 43 -13 94 76 118 207 14 79 8 109 -25 109 -13 0 -26 -3
-28 -7z"/>
<path d="M5885 3891 c-3 -5 -27 -67 -54 -138 -27 -71 -63 -157 -80 -190 -17
-34 -28 -69 -25 -77 9 -23 42 -19 66 7 27 30 128 271 135 323 7 55 -21 107
-42 75z"/>
<path d="M3964 3434 c-124 -62 -136 -66 -217 -71 l-85 -6 -24 49 c-20 42 -28
49 -56 52 -30 3 -34 0 -53 -44 -12 -26 -24 -74 -27 -107 -6 -67 8 -87 57 -87
25 0 48 -13 119 -65 18 -13 59 -29 90 -35 145 -29 224 -53 317 -99 55 -27 118
-53 140 -56 22 -4 67 -18 99 -31 72 -29 126 -31 149 -6 10 10 21 40 26 66 5
26 10 48 12 50 26 24 142 89 173 97 23 6 64 24 91 39 28 16 79 35 115 43 41
10 71 23 82 37 20 25 23 71 7 103 -16 31 -71 87 -85 87 -6 0 -23 -17 -38 -38
-61 -89 -147 -89 -283 0 -103 68 -134 79 -201 77 -128 -4 -179 -4 -227 3 -48
7 -56 4 -181 -58z m239 -241 c102 -14 129 -15 213 -3 52 7 97 10 100 7 11 -10
-7 -27 -27 -27 -11 0 -53 -11 -92 -24 -134 -44 -159 -43 -312 15 -92 36 -89
34 -80 49 5 8 21 10 44 6 20 -3 89 -14 154 -23z"/>
<path d="M5402 3197 c-73 -73 -89 -108 -55 -121 23 -9 76 31 129 96 46 56 54
82 28 92 -25 10 -26 9 -102 -67z"/>
<path d="M4100 2866 c-79 -22 -110 -44 -110 -78 0 -35 33 -39 121 -13 94 28
182 32 234 10 26 -10 40 -26 55 -59 33 -78 103 -103 147 -52 86 100 -83 207
-322 205 -44 0 -100 -6 -125 -13z"/>
<path d="M1151 6866 c-23 -28 140 -194 352 -359 98 -77 130 -91 141 -62 7 20
-71 113 -174 206 -45 41 -120 109 -166 152 -64 60 -89 77 -112 77 -16 0 -35
-6 -41 -14z"/>
<path d="M1066 6784 c-33 -33 -14 -62 116 -174 148 -128 175 -147 196 -133 10
5 18 21 20 34 2 19 -13 37 -74 89 -42 36 -100 91 -130 123 -29 31 -65 62 -79
67 -33 13 -31 13 -49 -6z"/>
<path d="M1427 6443 c-13 -13 -7 -42 12 -52 10 -6 49 -36 87 -66 68 -57 105
-67 112 -33 9 48 -179 184 -211 151z"/>
<path d="M768 6203 c-11 -2 -18 -14 -18 -27 0 -18 21 -36 98 -83 158 -99 186
-109 212 -78 20 24 -9 56 -81 95 -35 18 -83 46 -107 61 -45 31 -76 40 -104 32z"/>
<path d="M7820 5113 c-35 -16 -86 -26 -280 -58 -121 -20 -154 -32 -158 -61 -5
-34 19 -46 69 -35 24 6 73 11 109 11 107 0 290 29 340 53 107 52 29 140 -80
90z"/>
<path d="M354 4785 c-9 -23 3 -44 31 -55 51 -19 98 23 63 58 -18 18 -87 15
-94 -3z"/>
<path d="M7483 3143 c-19 -7 -16 -48 5 -65 31 -26 290 -138 320 -138 60 0 69
59 15 96 -17 11 -64 32 -105 44 -40 13 -95 34 -123 47 -48 22 -85 27 -112 16z"/>
<path d="M3681 1406 c-7 -8 -19 -66 -27 -128 -20 -154 -41 -265 -65 -345 -12
-39 -19 -81 -16 -102 3 -20 1 -56 -4 -81 -25 -140 -40 -253 -34 -269 7 -22 29
-33 50 -25 19 8 30 49 60 229 14 83 34 200 45 260 24 136 50 352 50 423 0 48
-2 52 -24 52 -13 0 -29 -6 -35 -14z"/>
<path d="M2605 1328 c-36 -45 -99 -135 -207 -294 l-91 -135 20 -27 c44 -59 79
-31 172 138 35 63 87 151 116 195 51 76 59 96 56 138 -2 28 -37 20 -66 -15z"/>
</g>
</svg>
